<svg version="1.1" id="Layer_1" xmlns="http://www.w3.org/2000/svg" xmlns:xlink="http://www.w3.org/1999/xlink" x="0px" y="0px"
	 width="100%" viewBox="0 0 593 511" enable-background="new 0 0 593 511" xml:space="preserve">
<path fill="#FFFEFE" opacity="1.000000" stroke="none" 
	d="
M13.999998,512.000000 
	C9.667506,512.000000 5.335012,512.000000 1.001889,512.000000 
	C1.001259,341.700500 1.001259,171.401001 1.001259,1.050753 
	C198.594528,1.050753 396.189087,1.050753 593.891846,1.050753 
	C593.891846,171.228149 593.891846,341.456390 593.891846,512.000000 
	C404.975220,512.000000 215.950241,512.000000 26.443642,511.586304 
	C24.028387,508.731903 16.348463,507.961273 14.332297,510.093567 
	C13.962776,510.484375 14.097836,511.352295 13.999998,512.000000 
M365.457520,262.761200 
	C367.007507,260.822723 368.557526,258.884247 370.783661,257.188995 
	C372.113495,259.705475 373.443329,262.221954 374.851776,264.887207 
	C379.663757,264.117096 384.655762,263.318176 391.093353,262.287872 
	C388.873810,257.156799 386.914185,252.626541 385.358948,247.516174 
	C386.848419,246.864151 388.592987,246.510208 389.774780,245.498688 
	C392.313812,243.325424 394.778961,240.985291 396.853241,238.378403 
	C398.200256,236.685547 398.804199,234.401443 400.111145,231.584625 
	C400.187042,231.681747 399.503967,230.807831 399.103699,229.359177 
	C400.341644,228.206528 401.579590,227.053879 403.612152,226.029297 
	C410.622375,229.282043 416.774170,228.320816 422.114868,222.505829 
	C422.892303,221.659393 424.422882,221.504654 425.880585,221.735519 
	C426.532379,223.232239 426.887726,224.976562 427.891937,226.178940 
	C430.821747,229.686890 434.521576,231.029724 438.997406,229.180008 
	C443.387817,227.365616 445.465515,224.046814 444.985779,219.370193 
	C444.491455,214.551590 441.267395,211.646698 436.816559,211.382980 
	C433.966278,211.214066 430.995300,213.081482 427.494507,213.564331 
	C426.634888,210.324753 425.775299,207.085159 425.221863,203.260590 
	C435.097717,193.391068 445.020874,183.568268 454.835419,173.638123 
	C463.696198,164.673019 464.052460,162.467789 455.423676,153.507980 
	C445.508698,143.212692 443.542694,142.040009 432.903320,152.636246 
	C409.075256,176.367630 385.356537,200.208801 361.603882,224.015869 
	C360.492126,225.130219 359.483307,226.347260 358.346130,227.605423 
	C361.573700,228.055573 364.327209,228.439606 367.030273,229.678238 
	C367.354370,232.127884 367.678497,234.577530 367.121521,237.084366 
	C365.080383,236.843735 363.039246,236.603104 360.743011,235.721695 
	C355.570343,232.803970 349.848022,233.276016 346.309662,237.158051 
	C330.506317,242.195663 324.655029,250.535019 323.974152,268.194305 
	C320.948303,274.712921 324.847137,279.265045 328.384857,283.970276 
	C330.990784,287.436188 332.220642,286.069031 333.718048,283.030060 
	C338.407776,285.067291 343.000336,287.380127 347.810272,289.076477 
	C354.836639,291.554504 362.226318,293.092621 369.079224,295.947937 
	C376.565887,299.067291 376.914154,307.670959 369.987885,311.957001 
	C367.245239,313.654144 363.979156,314.505463 361.104095,315.679535 
	C361.104095,320.758911 361.104095,325.999298 361.104095,331.235718 
	C378.718353,330.764984 389.687042,321.260529 391.478912,305.394897 
	C392.980164,292.103058 385.032776,280.511047 368.384430,277.530396 
	C360.650116,276.145660 353.165131,272.976074 345.810974,270.010773 
	C341.554291,268.294403 339.588196,264.676758 342.395844,260.273865 
	C346.385590,265.815613 351.751617,267.890503 359.112671,266.734589 
	C361.016327,265.505981 362.919983,264.277374 365.457520,262.761200 
M171.171021,371.206635 
	C187.236420,355.273285 203.301834,339.339935 219.379837,323.394104 
	C213.444199,313.763672 214.323196,303.892303 215.712799,294.171265 
	C217.261810,283.335114 224.719925,277.281586 235.440048,273.746124 
	C232.092239,272.488434 229.798325,271.626678 227.888199,270.909088 
	C224.522217,274.589935 221.623459,278.009583 218.465866,281.170685 
	C202.566422,297.087830 186.565796,312.904022 170.691772,328.846375 
	C168.256973,331.291656 166.550598,334.472656 164.072540,336.862610 
	C153.910065,346.663727 143.554031,356.263794 133.333069,366.004883 
	C131.412994,367.834778 129.676498,369.886749 128.044144,371.983246 
	C124.222435,376.891602 124.174423,379.670044 128.377228,384.358154 
	C131.251846,387.564728 134.607803,390.346527 137.808212,393.252533 
	C141.508057,396.612000 145.182617,396.606293 148.840424,393.076996 
	C154.464218,387.650696 160.139679,382.277924 166.395065,377.160980 
	C167.390823,377.940552 168.386581,378.720154 169.373779,379.493011 
	C171.489822,377.101349 174.288620,375.019440 171.171021,371.206635 
M128.073898,157.078979 
	C112.865074,172.256119 97.656242,187.433273 81.595459,203.460602 
	C88.855911,204.576492 90.123268,209.192841 90.855072,213.595825 
	C92.277748,222.155548 99.199417,226.010559 104.567398,231.981201 
	C106.819290,224.068848 108.821236,217.037537 110.821404,210.005707 
	C111.819069,206.498291 113.856476,203.544037 117.693558,203.941055 
	C123.912415,204.584488 127.428787,200.966263 131.072937,197.024078 
	C133.443634,194.459534 136.110977,192.171738 138.544052,189.661713 
	C141.495438,186.617004 144.404373,186.024521 147.471527,189.439331 
	C153.684143,196.356125 159.900558,203.269501 166.115417,210.184296 
	C166.461563,209.216400 166.807709,208.248520 167.153854,207.280640 
	C170.310028,206.052612 173.385330,204.138535 176.641037,203.754715 
	C181.734192,203.154297 186.950485,203.519501 192.112640,203.601135 
	C200.517563,203.734070 203.854202,208.221161 201.559433,216.332993 
	C199.930817,222.090042 198.045929,227.776138 196.500870,233.554184 
	C196.121292,234.973648 195.999710,237.220901 196.817795,238.080826 
	C202.924454,244.499695 209.297195,250.665421 216.167740,257.487610 
	C217.953964,245.791275 224.677124,238.513916 233.841629,232.844543 
	C232.359482,231.292206 231.248535,230.083008 230.089630,228.921677 
	C212.911774,211.708023 195.737076,194.491196 178.541107,177.295639 
	C169.002426,167.757187 159.414246,158.268250 149.872101,148.733261 
	C146.369827,145.233612 142.574127,144.318573 137.551636,147.011444 
	C136.723694,146.518082 135.895752,146.024719 133.930786,144.853821 
	C132.001831,148.784073 130.123886,152.610397 128.073898,157.078979 
M319.499146,93.999031 
	C312.273346,101.143799 304.960968,108.204025 297.860931,115.471672 
	C294.670898,118.737022 291.844391,118.381889 288.815948,115.546669 
	C287.235291,114.066849 285.668915,112.570518 284.132202,111.045212 
	C269.115448,96.139870 254.121490,81.211494 239.089096,66.321953 
	C230.577652,57.891380 226.039932,57.993813 217.873596,66.684311 
	C217.304245,67.290207 216.744965,67.919106 216.273132,68.601051 
	C209.532410,78.343529 208.882233,78.049660 217.202423,86.715263 
	C239.351562,109.783936 262.264679,132.122559 285.019684,154.604034 
	C292.203491,161.701523 294.764191,161.539764 302.045471,154.421875 
	C313.124908,143.591019 324.100403,132.653564 335.090027,121.731232 
	C340.642548,116.212723 346.091919,110.590309 351.656891,105.084557 
	C356.678864,100.116028 358.581604,100.127441 363.731018,105.071640 
	C366.855072,108.071175 369.846100,111.208916 372.954620,114.225037 
	C377.877594,119.001671 377.949860,121.326714 373.106049,126.202606 
	C349.152771,150.314499 325.197418,174.424362 301.220764,198.512985 
	C294.718811,205.045288 292.105316,205.009232 285.519653,198.426956 
	C264.308960,177.227188 243.134827,155.990738 221.894135,134.821106 
	C211.983246,124.943375 202.053986,115.079552 191.931122,105.421051 
	C186.980560,100.697601 185.255402,100.779922 179.925293,105.144478 
	C177.104630,107.454170 174.476654,110.054085 172.052002,112.781105 
	C166.872147,118.606941 166.912796,121.199364 171.847549,127.069008 
	C172.704346,128.088104 173.595734,129.084167 174.535873,130.026260 
	C207.722992,163.282593 240.874237,196.575012 274.166321,229.725998 
	C278.370575,233.912460 283.696381,236.983887 287.830322,241.226883 
	C293.140686,246.677353 294.273285,247.101761 299.963989,242.094986 
	C301.963043,240.336197 303.853455,238.449554 305.738434,236.566254 
	C324.124817,218.196671 342.531067,199.846802 360.868683,181.428604 
	C379.085022,163.132248 397.273315,144.807419 415.373169,126.396065 
	C419.831360,121.861107 419.876801,119.042732 415.617218,114.310684 
	C410.384369,108.497421 404.918396,102.884827 399.389099,97.349434 
	C387.969879,85.917625 376.548401,74.483826 364.910065,63.277039 
	C359.729248,58.288342 356.148224,58.189106 351.019562,63.049034 
	C340.503876,73.013794 330.319763,83.328415 319.499146,93.999031 
M185.819977,441.680084 
	C196.270828,452.196136 206.658463,462.776306 217.214691,473.185486 
	C220.035156,475.966675 223.210159,478.479980 226.553940,480.591125 
	C227.796356,481.375549 230.434784,481.320282 231.663422,480.495789 
	C235.234833,478.099091 238.655472,475.361176 241.707123,472.326569 
	C255.290100,458.819397 268.747437,445.185394 282.203430,431.551117 
	C292.581970,421.035065 293.684906,421.056824 304.119476,431.446777 
	C319.697601,446.958252 335.256104,462.492706 351.058685,477.773590 
	C356.216583,482.761200 360.154816,482.404968 365.503387,477.666351 
	C366.865326,476.459778 368.043396,475.035950 369.242706,473.657013 
	C378.048950,463.531738 378.032898,462.748322 368.622009,453.304474 
	C347.103271,431.710327 325.576416,410.124237 304.034271,388.553467 
	C302.271515,386.788391 300.433533,385.084595 298.513763,383.493195 
	C295.116547,380.677032 291.670288,380.306976 288.250977,383.563995 
	C286.564697,385.170227 284.721771,386.615356 283.073273,388.257385 
	C271.742798,399.543457 260.456604,410.873993 249.131454,422.165436 
	C243.942612,427.338867 238.667023,432.425415 233.490814,437.611298 
	C230.730988,440.376251 227.959076,440.419739 225.201187,437.806519 
	C221.458282,434.259888 217.690140,430.724365 214.167664,426.964111 
	C208.264252,420.662262 208.264755,420.104309 214.301117,414.068085 
	C238.095963,390.274078 261.939545,366.528778 285.802124,342.802612 
	C286.839844,341.770813 288.242706,341.106201 290.421814,339.629059 
	C282.488403,337.642303 276.758514,334.658478 269.751282,337.578156 
	C265.914490,339.176849 260.951569,337.848541 256.578003,338.441650 
	C251.445663,339.137695 246.364609,338.526031 241.792633,343.237946 
	C219.754349,365.950928 197.150238,388.114746 174.762680,410.489227 
	C173.354019,411.897125 171.940598,413.337585 170.769119,414.938324 
	C167.432495,419.497650 167.427933,422.886383 171.236618,427.004547 
	C175.756302,431.891357 180.609940,436.469360 185.819977,441.680084 
M481.559052,308.666412 
	C472.002350,299.545898 462.445648,290.425385 452.937134,281.350830 
	C452.937134,290.605042 453.252533,300.250305 452.841156,309.864441 
	C452.487823,318.121338 452.864838,325.621521 460.567841,330.954926 
	C463.752655,333.160065 463.255310,336.344940 460.520111,339.091705 
	C456.876740,342.750549 453.360107,346.536835 449.678436,350.155853 
	C444.762268,354.988281 442.551239,354.863678 437.427765,350.343353 
	C432.366821,345.878204 427.075439,341.674988 421.929474,337.304596 
	C421.061584,336.567535 420.423523,335.561462 419.670197,334.687469 
	C413.223938,327.208801 406.775574,319.731903 399.490326,311.283234 
	C395.856415,322.662903 389.930115,330.386444 381.304749,335.057251 
	C400.047211,354.206482 418.433472,373.222504 437.118744,391.940002 
	C442.629364,397.460144 444.989685,397.354401 450.660309,391.844208 
	C467.022980,375.944397 483.143463,359.795105 499.318665,343.703217 
	C500.405151,342.622345 501.155304,341.203430 502.649261,339.124237 
	C498.828186,339.124237 496.052948,339.142914 493.278046,339.120728 
	C485.239685,339.056458 482.228607,336.016754 482.133942,327.880951 
	C482.062286,321.721924 482.003082,315.562744 481.559052,308.666412 
M351.547119,349.952698 
	C345.681396,344.398499 340.399048,338.426147 332.704590,334.758881 
	C327.907104,332.472321 323.156769,327.897491 320.795807,323.150635 
	C316.091919,313.693298 308.318634,307.311188 301.309723,300.082550 
	C300.132355,298.868256 298.667267,297.932861 296.794037,296.436371 
	C296.794037,300.532104 295.476868,304.936737 297.027588,306.504364 
	C302.972412,312.513947 300.881927,319.656677 300.906708,326.380066 
	C300.921997,330.526611 299.340942,334.679077 298.441742,338.996155 
	C328.362427,369.139740 359.102814,400.124207 389.862579,431.089386 
	C399.889740,441.183472 401.571075,441.165405 411.538269,431.156372 
	C421.271240,421.382538 421.292114,419.607208 411.478607,409.792328 
	C391.684845,389.995697 371.860596,370.229553 351.547119,349.952698 
M263.164673,273.855255 
	C254.462738,276.613434 245.559723,278.881195 237.142044,282.332611 
	C232.805298,284.110718 227.825546,287.204956 225.785553,291.094116 
	C221.658859,298.961426 221.735352,308.055634 225.414780,316.205902 
	C230.206985,326.821106 239.810104,330.101318 250.972809,330.550018 
	C250.972809,325.117767 250.972809,319.894775 250.972809,314.563232 
	C249.385818,314.367981 248.067307,314.247437 246.763046,314.038055 
	C241.067093,313.123688 238.600464,310.432007 238.226776,304.769318 
	C237.807083,298.409607 238.983200,296.540436 245.233536,294.700134 
	C253.782455,292.183044 262.391998,289.871857 271.231018,287.400970 
	C271.231018,291.630554 271.234680,295.941406 271.230286,300.252258 
	C271.220001,310.315735 269.809631,312.208344 260.309692,314.950134 
	C260.309692,320.200348 260.309692,325.439209 260.309692,331.628998 
	C266.644196,329.680145 272.409088,327.906525 277.997711,326.187164 
	C282.454041,327.823883 287.220642,329.574554 292.768036,331.612000 
	C292.768036,325.793823 292.840790,321.481232 292.714569,317.174438 
	C292.684662,316.154083 292.036987,315.130310 291.586426,314.148041 
	C290.437592,311.643433 288.279083,309.183868 288.220276,306.666656 
	C287.889618,292.512634 288.217194,278.344696 288.016907,264.185760 
	C287.793579,248.399536 275.187531,236.366776 260.078857,237.386215 
	C260.078857,242.474945 260.078857,247.580368 260.078857,252.661926 
	C267.366791,254.381699 270.219330,257.429962 271.193024,263.011292 
	C272.279449,269.238953 268.814636,271.776642 263.164673,273.855255 
M106.295456,267.208588 
	C108.654976,275.015686 111.014503,282.822754 113.374023,290.629852 
	C113.851509,290.606689 114.328995,290.583557 114.806480,290.560394 
	C119.096161,275.820862 123.385834,261.081329 127.675514,246.341812 
	C128.004654,246.421021 128.333786,246.500244 128.662933,246.579453 
	C136.562119,274.638885 144.461304,302.698334 152.255112,330.383453 
	C157.140579,331.911896 159.232391,330.184052 160.118225,325.896149 
	C160.818466,322.506653 161.930267,319.136108 163.352585,315.979401 
	C164.967407,312.395508 164.698715,309.088318 163.644806,305.438080 
	C158.994919,289.333313 154.540451,273.172089 150.021378,257.029572 
	C145.830307,242.058640 141.647079,227.085495 137.471603,212.153458 
	C131.084747,212.153458 125.133926,212.153458 119.263359,212.153458 
	C119.018456,212.601288 118.796524,212.875275 118.708481,213.187057 
	C114.469627,228.199173 110.140640,243.187363 106.112778,258.256042 
	C105.433258,260.798218 106.058273,263.689056 106.295456,267.208588 
M513.476990,261.841553 
	C515.562866,261.841553 517.648743,261.841553 519.917358,261.841553 
	C519.917358,258.439758 519.917419,255.781082 519.917419,253.122406 
	C519.917419,250.508179 519.917358,247.893951 519.917358,244.795410 
	C515.669434,244.795410 511.939117,244.795410 508.253082,244.795410 
	C507.649323,229.618134 508.030304,229.086823 521.039917,226.568008 
	C522.218201,221.287064 523.406982,215.959061 524.602539,210.600494 
	C515.136780,209.415787 508.685455,210.693619 503.226929,214.322098 
	C492.188263,221.659866 490.085327,232.755737 490.789673,245.214081 
	C486.536011,245.214081 482.943176,245.214081 479.369415,245.214081 
	C479.369415,250.877060 479.369415,256.133453 479.369415,261.853973 
	C483.195953,261.853973 486.776459,261.853973 490.874756,261.853973 
	C490.874756,285.042908 490.874756,307.768097 490.874756,330.609894 
	C496.822540,330.609894 502.239838,330.609894 508.136292,330.609894 
	C508.136292,307.646973 508.136292,284.909454 508.136292,261.841553 
	C509.914795,261.841553 511.221008,261.841553 513.476990,261.841553 
M77.743286,261.871307 
	C83.889908,283.253448 90.137962,304.607361 96.097130,326.041626 
	C97.281479,330.301575 99.274956,331.804840 103.749939,330.441833 
	C105.382179,325.632294 107.457703,320.717346 108.643547,315.596405 
	C109.422318,312.233307 109.736626,308.349518 108.847420,305.083130 
	C104.399956,288.745758 99.502472,272.530579 94.731422,256.281738 
	C90.399841,241.529617 86.027420,226.789490 81.696297,212.122971 
	C75.438576,212.122971 69.627174,212.122971 63.304588,212.122971 
	C68.060524,228.623596 72.743904,244.872513 77.743286,261.871307 
M455.447205,259.039093 
	C463.692017,250.755371 471.968170,242.502365 480.147919,234.154892 
	C481.380829,232.896729 482.611877,231.325989 483.082672,229.681885 
	C486.353210,218.260239 492.750366,209.426193 504.458069,203.879669 
	C500.664429,199.788788 497.363861,195.883377 493.697021,192.359055 
	C488.572571,187.433685 484.426392,187.407104 479.367188,192.266068 
	C471.435181,199.884171 463.642731,207.649826 455.909332,215.469849 
	C454.853821,216.537155 454.252319,218.214218 453.832764,219.718353 
	C452.731201,223.667130 451.846222,227.676300 451.057831,230.911102 
	C451.737915,234.875305 452.674713,238.364594 452.863922,241.893951 
	C453.157837,247.378174 452.901062,252.890671 453.029999,258.387604 
	C453.039520,258.792938 454.274963,259.169525 455.447205,259.039093 
M444.331268,239.577271 
	C444.016296,239.066528 443.708771,238.116074 443.385223,238.110580 
	C437.969604,238.018784 432.551971,238.045059 427.336243,238.045059 
	C427.336243,269.291962 427.336243,299.962219 427.336243,330.566101 
	C433.120728,330.566101 438.543274,330.566101 444.342804,330.566101 
	C444.342804,300.386658 444.342804,270.475769 444.331268,239.577271 
M176.145844,271.778351 
	C182.079178,251.967072 188.012527,232.155792 193.990784,212.194550 
	C187.556274,212.194550 181.596573,212.194550 175.469757,212.194550 
	C172.859451,221.068909 171.122849,230.164429 167.542938,238.464935 
	C160.551788,254.674896 160.620483,270.427643 167.766006,286.367737 
	C168.377380,287.731567 168.818863,289.171509 169.339264,290.576111 
	C169.749680,290.538635 170.160095,290.501160 170.570511,290.463684 
	C172.374268,284.498016 174.178024,278.532379 176.145844,271.778351 
M112.747070,344.257568 
	C120.801544,336.087463 128.918045,327.976624 136.843307,319.683044 
	C138.026245,318.445160 139.224762,316.118652 138.864227,314.686340 
	C136.288712,304.453766 133.310760,294.322479 130.069305,282.763031 
	C125.234955,289.218445 121.162544,294.656433 116.510170,300.868835 
	C120.401260,307.400787 118.590218,314.955688 115.343262,322.521210 
	C114.104195,325.408264 113.334457,328.493988 112.288757,331.467346 
	C110.091911,337.713806 108.222359,339.056427 101.749359,339.146729 
	C92.467873,339.276184 91.294617,338.433472 88.581261,329.762543 
	C88.313202,328.905914 87.921776,328.087891 87.549843,327.157501 
	C81.580193,332.292358 80.936188,336.227020 85.992638,341.682861 
	C100.615318,357.460510 100.874527,355.340485 112.747070,344.257568 
M332.644562,304.271515 
	C329.770538,304.876434 326.896515,305.481323 324.103394,306.069183 
	C324.457123,321.451141 338.388947,333.178558 353.011292,330.764526 
	C353.011292,325.626770 353.011292,320.481506 353.011292,315.168762 
	C346.269531,313.632202 340.809692,310.642883 339.829254,303.062836 
	C337.388031,303.469635 335.431122,303.795746 332.644562,304.271515 
M251.267059,242.699768 
	C251.267059,240.915710 251.267059,239.131668 251.267059,236.903320 
	C248.851700,237.270355 246.860016,237.381882 244.976059,237.891586 
	C235.625946,240.421295 228.477310,245.595078 225.297073,255.130096 
	C224.223114,258.350037 224.277435,261.114380 228.697449,262.160889 
	C232.366608,263.029633 235.836243,264.741150 239.706177,266.196625 
	C240.194122,258.699371 243.335709,253.609528 251.267349,252.913895 
	C251.267349,249.569962 251.267349,246.591217 251.267059,242.699768 
M404.837311,273.419006 
	C409.031403,278.292236 413.225494,283.165497 417.419556,288.038727 
	C417.754395,287.750488 418.089203,287.462219 418.424011,287.173981 
	C418.424011,276.022797 418.424011,264.871613 418.424011,253.720428 
	C418.072998,253.488983 417.721985,253.257523 417.370941,253.026077 
	C413.278076,257.840881 409.037231,262.542358 405.200500,267.553284 
	C404.286652,268.746826 404.723602,270.974579 404.837311,273.419006 
M554.997559,110.527794 
	C552.623291,107.152489 550.427368,103.626488 547.774536,100.486534 
	C546.889343,99.438812 544.438538,98.574333 543.418579,99.077049 
	C542.224243,99.665703 541.023376,101.939880 541.199890,103.305260 
	C541.831177,108.189835 542.909241,113.034454 544.155396,117.806168 
	C544.393616,118.718376 546.161560,119.231079 547.223816,119.928078 
	C547.754639,118.917488 548.822754,117.842644 548.711121,116.908897 
	C548.426514,114.529129 547.615051,112.212349 546.884705,109.364746 
	C552.181763,112.398071 551.840881,121.634247 560.809875,119.601173 
	C558.913086,116.579903 557.186523,113.829849 554.997559,110.527794 
M365.275391,305.052612 
	C364.732666,304.151337 364.372162,302.682159 363.617889,302.440094 
	C358.345978,300.748138 352.992676,299.309875 347.366821,297.705231 
	C348.882690,305.496124 351.046631,307.358948 357.960052,306.928833 
	C360.218597,306.788300 362.437714,306.013641 365.275391,305.052612 
M248.705750,263.461273 
	C248.413574,265.522186 248.121399,267.583099 247.744568,270.241241 
	C253.359848,268.305023 258.247772,266.619629 263.347382,264.861206 
	C259.906860,259.834686 255.531952,259.405518 248.705750,263.461273 
M520.577393,114.222687 
	C519.885742,115.394073 518.378296,116.917320 518.695740,117.653435 
	C519.158936,118.727333 520.883789,119.759895 522.159546,119.881935 
	C525.395752,120.191505 528.681396,119.984764 531.947205,119.984764 
	C532.103333,119.528084 532.259460,119.071411 532.415588,118.614731 
	C528.680176,117.054642 524.944702,115.494553 520.577393,114.222687 
z"/>
<path fill="#F0F0F0" opacity="1.000000" stroke="none" 
	d="
M14.460634,512.000000 
	C14.097836,511.352295 13.962776,510.484375 14.332297,510.093567 
	C16.348463,507.961273 24.028387,508.731903 25.981003,511.586304 
	C22.307091,512.000000 18.614182,512.000000 14.460634,512.000000 
z"/>
<path fill="#8FC641" opacity="1.000000" stroke="none" 
	d="
M319.749146,93.749008 
	C330.319763,83.328415 340.503876,73.013794 351.019562,63.049034 
	C356.148224,58.189106 359.729248,58.288342 364.910065,63.277039 
	C376.548401,74.483826 387.969879,85.917625 399.389099,97.349434 
	C404.918396,102.884827 410.384369,108.497421 415.617218,114.310684 
	C419.876801,119.042732 419.831360,121.861107 415.373169,126.396065 
	C397.273315,144.807419 379.085022,163.132248 360.868683,181.428604 
	C342.531067,199.846802 324.124817,218.196671 305.738434,236.566254 
	C303.853455,238.449554 301.963043,240.336197 299.963989,242.094986 
	C294.273285,247.101761 293.140686,246.677353 287.830322,241.226883 
	C283.696381,236.983887 278.370575,233.912460 274.166321,229.725998 
	C240.874237,196.575012 207.722992,163.282593 174.535873,130.026260 
	C173.595734,129.084167 172.704346,128.088104 171.847549,127.069008 
	C166.912796,121.199364 166.872147,118.606941 172.052002,112.781105 
	C174.476654,110.054085 177.104630,107.454170 179.925293,105.144478 
	C185.255402,100.779922 186.980560,100.697601 191.931122,105.421051 
	C202.053986,115.079552 211.983246,124.943375 221.894135,134.821106 
	C243.134827,155.990738 264.308960,177.227188 285.519653,198.426956 
	C292.105316,205.009232 294.718811,205.045288 301.220764,198.512985 
	C325.197418,174.424362 349.152771,150.314499 373.106049,126.202606 
	C377.949860,121.326714 377.877594,119.001671 372.954620,114.225037 
	C369.846100,111.208916 366.855072,108.071175 363.731018,105.071640 
	C358.581604,100.127441 356.678864,100.116028 351.656891,105.084557 
	C346.091919,110.590309 340.642548,116.212723 335.090027,121.731232 
	C324.100403,132.653564 313.124908,143.591019 302.045471,154.421875 
	C294.764191,161.539764 292.203491,161.701523 285.019684,154.604034 
	C262.264679,132.122559 239.351562,109.783936 217.202423,86.715263 
	C208.882233,78.049660 209.532410,78.343529 216.273132,68.601051 
	C216.744965,67.919106 217.304245,67.290207 217.873596,66.684311 
	C226.039932,57.993813 230.577652,57.891380 239.089096,66.321953 
	C254.121490,81.211494 269.115448,96.139870 284.132202,111.045212 
	C285.668915,112.570518 287.235291,114.066849 288.815948,115.546669 
	C291.844391,118.381889 294.670898,118.737022 297.860931,115.471672 
	C304.960968,108.204025 312.273346,101.143799 319.749146,93.749008 
z"/>
<path fill="#FDDE1A" opacity="1.000000" stroke="none" 
	d="
M185.569412,441.430664 
	C180.609940,436.469360 175.756302,431.891357 171.236618,427.004547 
	C167.427933,422.886383 167.432495,419.497650 170.769119,414.938324 
	C171.940598,413.337585 173.354019,411.897125 174.762680,410.489227 
	C197.150238,388.114746 219.754349,365.950928 241.792633,343.237946 
	C246.364609,338.526031 251.445663,339.137695 256.578003,338.441650 
	C260.951569,337.848541 265.914490,339.176849 269.751282,337.578156 
	C276.758514,334.658478 282.488403,337.642303 290.421814,339.629059 
	C288.242706,341.106201 286.839844,341.770813 285.802124,342.802612 
	C261.939545,366.528778 238.095963,390.274078 214.301117,414.068085 
	C208.264755,420.104309 208.264252,420.662262 214.167664,426.964111 
	C217.690140,430.724365 221.458282,434.259888 225.201187,437.806519 
	C227.959076,440.419739 230.730988,440.376251 233.490814,437.611298 
	C238.667023,432.425415 243.942612,427.338867 249.131454,422.165436 
	C260.456604,410.873993 271.742798,399.543457 283.073273,388.257385 
	C284.721771,386.615356 286.564697,385.170227 288.250977,383.563995 
	C291.670288,380.306976 295.116547,380.677032 298.513763,383.493195 
	C300.433533,385.084595 302.271515,386.788391 304.034271,388.553467 
	C325.576416,410.124237 347.103271,431.710327 368.622009,453.304474 
	C378.032898,462.748322 378.048950,463.531738 369.242706,473.657013 
	C368.043396,475.035950 366.865326,476.459778 365.503387,477.666351 
	C360.154816,482.404968 356.216583,482.761200 351.058685,477.773590 
	C335.256104,462.492706 319.697601,446.958252 304.119476,431.446777 
	C293.684906,421.056824 292.581970,421.035065 282.203430,431.551117 
	C268.747437,445.185394 255.290100,458.819397 241.707123,472.326569 
	C238.655472,475.361176 235.234833,478.099091 231.663422,480.495789 
	C230.434784,481.320282 227.796356,481.375549 226.553940,480.591125 
	C223.210159,478.479980 220.035156,475.966675 217.214691,473.185486 
	C206.658463,462.776306 196.270828,452.196136 185.569412,441.430664 
z"/>
<path fill="#4AB4E3" opacity="1.000000" stroke="none" 
	d="
M481.748718,309.035034 
	C482.003082,315.562744 482.062286,321.721924 482.133942,327.880951 
	C482.228607,336.016754 485.239685,339.056458 493.278046,339.120728 
	C496.052948,339.142914 498.828186,339.124237 502.649261,339.124237 
	C501.155304,341.203430 500.405151,342.622345 499.318665,343.703217 
	C483.143463,359.795105 467.022980,375.944397 450.660309,391.844208 
	C444.989685,397.354401 442.629364,397.460144 437.118744,391.940002 
	C418.433472,373.222504 400.047211,354.206482 381.304749,335.057251 
	C389.930115,330.386444 395.856415,322.662903 399.490326,311.283234 
	C406.775574,319.731903 413.223938,327.208801 419.670197,334.687469 
	C420.423523,335.561462 421.061584,336.567535 421.929474,337.304596 
	C427.075439,341.674988 432.366821,345.878204 437.427765,350.343353 
	C442.551239,354.863678 444.762268,354.988281 449.678436,350.155853 
	C453.360107,346.536835 456.876740,342.750549 460.520111,339.091705 
	C463.255310,336.344940 463.752655,333.160065 460.567841,330.954926 
	C452.864838,325.621521 452.487823,318.121338 452.841156,309.864441 
	C453.252533,300.250305 452.937134,290.605042 452.937134,281.350830 
	C462.445648,290.425385 472.002350,299.545898 481.748718,309.035034 
z"/>
<path fill="#F34545" opacity="1.000000" stroke="none" 
	d="
M138.240067,147.153809 
	C142.574127,144.318573 146.369827,145.233612 149.872101,148.733261 
	C159.414246,158.268250 169.002426,167.757187 178.541107,177.295639 
	C195.737076,194.491196 212.911774,211.708023 230.089630,228.921677 
	C231.248535,230.083008 232.359482,231.292206 233.841629,232.844543 
	C224.677124,238.513916 217.953964,245.791275 216.167740,257.487610 
	C209.297195,250.665421 202.924454,244.499695 196.817795,238.080826 
	C195.999710,237.220901 196.121292,234.973648 196.500870,233.554184 
	C198.045929,227.776138 199.930817,222.090042 201.559433,216.332993 
	C203.854202,208.221161 200.517563,203.734070 192.112640,203.601135 
	C186.950485,203.519501 181.734192,203.154297 176.641037,203.754715 
	C173.385330,204.138535 170.310028,206.052612 167.153854,207.280640 
	C166.807709,208.248520 166.461563,209.216400 166.115417,210.184296 
	C159.900558,203.269501 153.684143,196.356125 147.471527,189.439331 
	C144.404373,186.024521 141.495438,186.617004 138.544052,189.661713 
	C136.110977,192.171738 133.443634,194.459534 131.072937,197.024078 
	C127.428787,200.966263 123.912415,204.584488 117.693558,203.941055 
	C113.856476,203.544037 111.819069,206.498291 110.821404,210.005707 
	C108.821236,217.037537 106.819290,224.068848 104.567398,231.981201 
	C99.199417,226.010559 92.277748,222.155548 90.855072,213.595825 
	C90.123268,209.192841 88.855911,204.576492 81.595459,203.460602 
	C97.656242,187.433273 112.865074,172.256119 128.465424,156.606125 
	C131.984665,153.140106 135.112366,150.146957 138.240067,147.153809 
z"/>
<path fill="#FDDE1C" opacity="1.000000" stroke="none" 
	d="
M351.798035,350.201782 
	C371.860596,370.229553 391.684845,389.995697 411.478607,409.792328 
	C421.292114,419.607208 421.271240,421.382538 411.538269,431.156372 
	C401.571075,441.165405 399.889740,441.183472 389.862579,431.089386 
	C359.102814,400.124207 328.362427,369.139740 298.441742,338.996155 
	C299.340942,334.679077 300.921997,330.526611 300.906708,326.380066 
	C300.881927,319.656677 302.972412,312.513947 297.027588,306.504364 
	C295.476868,304.936737 296.794037,300.532104 296.794037,296.436371 
	C298.667267,297.932861 300.132355,298.868256 301.309723,300.082550 
	C308.318634,307.311188 316.091919,313.693298 320.795807,323.150635 
	C323.156769,327.897491 327.907104,332.472321 332.704590,334.758881 
	C340.399048,338.426147 345.681396,344.398499 351.798035,350.201782 
z"/>
<path fill="#F34444" opacity="1.000000" stroke="none" 
	d="
M165.793213,376.882446 
	C160.139679,382.277924 154.464218,387.650696 148.840424,393.076996 
	C145.182617,396.606293 141.508057,396.612000 137.808212,393.252533 
	C134.607803,390.346527 131.251846,387.564728 128.377228,384.358154 
	C124.174423,379.670044 124.222435,376.891602 128.044144,371.983246 
	C129.676498,369.886749 131.412994,367.834778 133.333069,366.004883 
	C143.554031,356.263794 153.910065,346.663727 164.072540,336.862610 
	C166.550598,334.472656 168.256973,331.291656 170.691772,328.846375 
	C186.565796,312.904022 202.566422,297.087830 218.465866,281.170685 
	C221.623459,278.009583 224.522217,274.589935 227.888199,270.909088 
	C229.798325,271.626678 232.092239,272.488434 235.440048,273.746124 
	C224.719925,277.281586 217.261810,283.335114 215.712799,294.171265 
	C214.323196,303.892303 213.444199,313.763672 219.379837,323.394104 
	C203.301834,339.339935 187.236420,355.273285 170.732941,371.649811 
	C168.794312,373.689484 167.293762,375.285980 165.793213,376.882446 
z"/>
<path fill="#48B4E3" opacity="1.000000" stroke="none" 
	d="
M367.080688,228.823639 
	C364.327209,228.439606 361.573700,228.055573 358.346130,227.605423 
	C359.483307,226.347260 360.492126,225.130219 361.603882,224.015869 
	C385.356537,200.208801 409.075256,176.367630 432.903320,152.636246 
	C443.542694,142.040009 445.508698,143.212692 455.423676,153.507980 
	C464.052460,162.467789 463.696198,164.673019 454.835419,173.638123 
	C445.020874,183.568268 435.097717,193.391068 424.786377,203.698959 
	C423.219208,205.377808 422.087524,206.618286 420.652039,208.007095 
	C415.844604,212.752853 411.341003,217.350281 406.550964,222.080322 
	C405.115509,223.442352 403.966522,224.671783 402.817535,225.901215 
	C401.579590,227.053879 400.341644,228.206528 398.685577,229.777298 
	C397.163361,231.394852 396.059265,232.594269 394.693237,233.918442 
	C394.192963,234.344208 393.954681,234.645218 393.429932,235.091141 
	C391.751038,236.618484 390.358612,238.000900 388.621704,239.285156 
	C382.857483,236.097397 377.437805,233.007828 371.751831,229.664581 
	C370.017242,229.215149 368.548981,229.019394 367.080688,228.823639 
z"/>
<path fill="#040404" opacity="1.000000" stroke="none" 
	d="
M263.516449,273.694763 
	C268.814636,271.776642 272.279449,269.238953 271.193024,263.011292 
	C270.219330,257.429962 267.366791,254.381699 260.078857,252.661926 
	C260.078857,247.580368 260.078857,242.474945 260.078857,237.386215 
	C275.187531,236.366776 287.793579,248.399536 288.016907,264.185760 
	C288.217194,278.344696 287.889618,292.512634 288.220276,306.666656 
	C288.279083,309.183868 290.437592,311.643433 291.586426,314.148041 
	C292.036987,315.130310 292.684662,316.154083 292.714569,317.174438 
	C292.840790,321.481232 292.768036,325.793823 292.768036,331.612000 
	C287.220642,329.574554 282.454041,327.823883 277.997711,326.187164 
	C272.409088,327.906525 266.644196,329.680145 260.309692,331.628998 
	C260.309692,325.439209 260.309692,320.200348 260.309692,314.950134 
	C269.809631,312.208344 271.220001,310.315735 271.230286,300.252258 
	C271.234680,295.941406 271.231018,291.630554 271.231018,287.400970 
	C262.391998,289.871857 253.782455,292.183044 245.233536,294.700134 
	C238.983200,296.540436 237.807083,298.409607 238.226776,304.769318 
	C238.600464,310.432007 241.067093,313.123688 246.763046,314.038055 
	C248.067307,314.247437 249.385818,314.367981 250.972809,314.563232 
	C250.972809,319.894775 250.972809,325.117767 250.972809,330.550018 
	C239.810104,330.101318 230.206985,326.821106 225.414780,316.205902 
	C221.735352,308.055634 221.658859,298.961426 225.785553,291.094116 
	C227.825546,287.204956 232.805298,284.110718 237.142044,282.332611 
	C245.559723,278.881195 254.462738,276.613434 263.516449,273.694763 
z"/>
<path fill="#040404" opacity="1.000000" stroke="none" 
	d="
M106.188004,266.813721 
	C106.058273,263.689056 105.433258,260.798218 106.112778,258.256042 
	C110.140640,243.187363 114.469627,228.199173 118.708481,213.187057 
	C118.796524,212.875275 119.018456,212.601288 119.263359,212.153458 
	C125.133926,212.153458 131.084747,212.153458 137.471603,212.153458 
	C141.647079,227.085495 145.830307,242.058640 150.021378,257.029572 
	C154.540451,273.172089 158.994919,289.333313 163.644806,305.438080 
	C164.698715,309.088318 164.967407,312.395508 163.352585,315.979401 
	C161.930267,319.136108 160.818466,322.506653 160.118225,325.896149 
	C159.232391,330.184052 157.140579,331.911896 152.255112,330.383453 
	C144.461304,302.698334 136.562119,274.638885 128.662933,246.579453 
	C128.333786,246.500244 128.004654,246.421021 127.675514,246.341812 
	C123.385834,261.081329 119.096161,275.820862 114.806480,290.560394 
	C114.328995,290.583557 113.851509,290.606689 113.374023,290.629852 
	C111.014503,282.822754 108.654976,275.015686 106.188004,266.813721 
z"/>
<path fill="#030303" opacity="1.000000" stroke="none" 
	d="
M513.002075,261.841553 
	C511.221008,261.841553 509.914795,261.841553 508.136292,261.841553 
	C508.136292,284.909454 508.136292,307.646973 508.136292,330.609894 
	C502.239838,330.609894 496.822540,330.609894 490.874756,330.609894 
	C490.874756,307.768097 490.874756,285.042908 490.874756,261.853973 
	C486.776459,261.853973 483.195953,261.853973 479.369415,261.853973 
	C479.369415,256.133453 479.369415,250.877060 479.369415,245.214081 
	C482.943176,245.214081 486.536011,245.214081 490.789673,245.214081 
	C490.085327,232.755737 492.188263,221.659866 503.226929,214.322098 
	C508.685455,210.693619 515.136780,209.415787 524.602539,210.600494 
	C523.406982,215.959061 522.218201,221.287064 521.039917,226.568008 
	C508.030304,229.086823 507.649323,229.618134 508.253082,244.795410 
	C511.939117,244.795410 515.669434,244.795410 519.917358,244.795410 
	C519.917358,247.893951 519.917419,250.508179 519.917419,253.122406 
	C519.917419,255.781082 519.917358,258.439758 519.917358,261.841553 
	C517.648743,261.841553 515.562866,261.841553 513.002075,261.841553 
z"/>
<path fill="#040404" opacity="1.000000" stroke="none" 
	d="
M341.804352,259.898254 
	C339.588196,264.676758 341.554291,268.294403 345.810974,270.010773 
	C353.165131,272.976074 360.650116,276.145660 368.384430,277.530396 
	C385.032776,280.511047 392.980164,292.103058 391.478912,305.394897 
	C389.687042,321.260529 378.718353,330.764984 361.104095,331.235718 
	C361.104095,325.999298 361.104095,320.758911 361.104095,315.679535 
	C363.979156,314.505463 367.245239,313.654144 369.987885,311.957001 
	C376.914154,307.670959 376.565887,299.067291 369.079224,295.947937 
	C362.226318,293.092621 354.836639,291.554504 347.810272,289.076477 
	C343.000336,287.380127 338.407776,285.067291 333.267151,282.605072 
	C328.380402,278.428162 325.651764,273.701294 324.696381,267.961731 
	C324.655029,250.535019 330.506317,242.195663 347.112549,237.044724 
	C349.497253,236.860809 351.079071,236.790222 352.735657,236.716309 
	C352.735657,242.274582 352.735657,247.390396 352.735657,251.826508 
	C349.728149,253.313278 347.151855,254.586899 344.275574,255.973679 
	C343.251831,257.357330 342.528107,258.627777 341.804352,259.898254 
z"/>
<path fill="#040404" opacity="1.000000" stroke="none" 
	d="
M77.585289,261.496368 
	C72.743904,244.872513 68.060524,228.623596 63.304588,212.122971 
	C69.627174,212.122971 75.438576,212.122971 81.696297,212.122971 
	C86.027420,226.789490 90.399841,241.529617 94.731422,256.281738 
	C99.502472,272.530579 104.399956,288.745758 108.847420,305.083130 
	C109.736626,308.349518 109.422318,312.233307 108.643547,315.596405 
	C107.457703,320.717346 105.382179,325.632294 103.749939,330.441833 
	C99.274956,331.804840 97.281479,330.301575 96.097130,326.041626 
	C90.137962,304.607361 83.889908,283.253448 77.585289,261.496368 
z"/>
<path fill="#48B4E3" opacity="1.000000" stroke="none" 
	d="
M455.193848,259.299286 
	C454.274963,259.169525 453.039520,258.792938 453.029999,258.387604 
	C452.901062,252.890671 453.157837,247.378174 452.863922,241.893951 
	C452.674713,238.364594 451.737915,234.875305 451.057831,230.911102 
	C451.846222,227.676300 452.731201,223.667130 453.832764,219.718353 
	C454.252319,218.214218 454.853821,216.537155 455.909332,215.469849 
	C463.642731,207.649826 471.435181,199.884171 479.367188,192.266068 
	C484.426392,187.407104 488.572571,187.433685 493.697021,192.359055 
	C497.363861,195.883377 500.664429,199.788788 504.458069,203.879669 
	C492.750366,209.426193 486.353210,218.260239 483.082672,229.681885 
	C482.611877,231.325989 481.380829,232.896729 480.147919,234.154892 
	C471.968170,242.502365 463.692017,250.755371 455.193848,259.299286 
z"/>
<path fill="#010101" opacity="1.000000" stroke="none" 
	d="
M444.337036,240.071060 
	C444.342804,270.475769 444.342804,300.386658 444.342804,330.566101 
	C438.543274,330.566101 433.120728,330.566101 427.336243,330.566101 
	C427.336243,299.962219 427.336243,269.291962 427.336243,238.045059 
	C432.551971,238.045059 437.969604,238.018784 443.385223,238.110580 
	C443.708771,238.116074 444.016296,239.066528 444.337036,240.071060 
z"/>
<path fill="#040404" opacity="1.000000" stroke="none" 
	d="
M176.063812,272.172546 
	C174.178024,278.532379 172.374268,284.498016 170.570511,290.463684 
	C170.160095,290.501160 169.749680,290.538635 169.339264,290.576111 
	C168.818863,289.171509 168.377380,287.731567 167.766006,286.367737 
	C160.620483,270.427643 160.551788,254.674896 167.542938,238.464935 
	C171.122849,230.164429 172.859451,221.068909 175.469757,212.194550 
	C181.596573,212.194550 187.556274,212.194550 193.990784,212.194550 
	C188.012527,232.155792 182.079178,251.967072 176.063812,272.172546 
z"/>
<path fill="#F34545" opacity="1.000000" stroke="none" 
	d="
M112.498779,344.508423 
	C100.874527,355.340485 100.615318,357.460510 85.992638,341.682861 
	C80.936188,336.227020 81.580193,332.292358 87.549843,327.157501 
	C87.921776,328.087891 88.313202,328.905914 88.581261,329.762543 
	C91.294617,338.433472 92.467873,339.276184 101.749359,339.146729 
	C108.222359,339.056427 110.091911,337.713806 112.288757,331.467346 
	C113.334457,328.493988 114.104195,325.408264 115.343262,322.521210 
	C118.590218,314.955688 120.401260,307.400787 116.510170,300.868835 
	C121.162544,294.656433 125.234955,289.218445 130.069305,282.763031 
	C133.310760,294.322479 136.288712,304.453766 138.864227,314.686340 
	C139.224762,316.118652 138.026245,318.445160 136.843307,319.683044 
	C128.918045,327.976624 120.801544,336.087463 112.498779,344.508423 
z"/>
<path fill="#040404" opacity="1.000000" stroke="none" 
	d="
M333.059387,304.196716 
	C335.431122,303.795746 337.388031,303.469635 339.829254,303.062836 
	C340.809692,310.642883 346.269531,313.632202 353.011292,315.168762 
	C353.011292,320.481506 353.011292,325.626770 353.011292,330.764526 
	C338.388947,333.178558 324.457123,321.451141 324.103394,306.069183 
	C326.896515,305.481323 329.770538,304.876434 333.059387,304.196716 
z"/>
<path fill="#070707" opacity="1.000000" stroke="none" 
	d="
M360.998108,236.362473 
	C363.039246,236.603104 365.080383,236.843735 367.844666,237.272720 
	C371.019592,238.370895 373.471375,239.280716 376.070435,240.448288 
	C377.081238,241.163223 377.944794,241.620422 378.960205,242.376419 
	C381.059540,244.482239 383.007050,246.289246 384.954559,248.096283 
	C386.914185,252.626541 388.873810,257.156799 391.093353,262.287872 
	C384.655762,263.318176 379.663757,264.117096 374.851776,264.887207 
	C373.443329,262.221954 372.113495,259.705475 370.320526,256.786804 
	C368.797089,255.828476 367.736755,255.272293 366.388611,254.442383 
	C364.257446,253.600128 362.414093,253.031616 360.036163,252.298218 
	C360.354187,247.029938 360.676147,241.696198 360.998108,236.362473 
z"/>
<path fill="#050505" opacity="1.000000" stroke="none" 
	d="
M251.267212,243.156113 
	C251.267349,246.591217 251.267349,249.569962 251.267349,252.913895 
	C243.335709,253.609528 240.194122,258.699371 239.706177,266.196625 
	C235.836243,264.741150 232.366608,263.029633 228.697449,262.160889 
	C224.277435,261.114380 224.223114,258.350037 225.297073,255.130096 
	C228.477310,245.595078 235.625946,240.421295 244.976059,237.891586 
	C246.860016,237.381882 248.851700,237.270355 251.267059,236.903320 
	C251.267059,239.131668 251.267059,240.915710 251.267212,243.156113 
z"/>
<path fill="#4EB6E4" opacity="1.000000" stroke="none" 
	d="
M404.688293,273.072815 
	C404.723602,270.974579 404.286652,268.746826 405.200500,267.553284 
	C409.037231,262.542358 413.278076,257.840881 417.370941,253.026077 
	C417.721985,253.257523 418.072998,253.488983 418.424011,253.720428 
	C418.424011,264.871613 418.424011,276.022797 418.424011,287.173981 
	C418.089203,287.462219 417.754395,287.750488 417.419556,288.038727 
	C413.225494,283.165497 409.031403,278.292236 404.688293,273.072815 
z"/>
<path fill="#060606" opacity="1.000000" stroke="none" 
	d="
M428.078430,214.036041 
	C430.995300,213.081482 433.966278,211.214066 436.816559,211.382980 
	C441.267395,211.646698 444.491455,214.551590 444.985779,219.370193 
	C445.465515,224.046814 443.387817,227.365616 438.997406,229.180008 
	C434.521576,231.029724 430.821747,229.686890 427.891937,226.178940 
	C426.887726,224.976562 426.532379,223.232239 425.829529,221.002838 
	C426.545135,218.192123 427.311798,216.114090 428.078430,214.036041 
z"/>
<path fill="#F8F8F9" opacity="1.000000" stroke="none" 
	d="
M360.870544,236.042084 
	C360.676147,241.696198 360.354187,247.029938 360.036163,252.298218 
	C362.414093,253.031616 364.257446,253.600128 366.045868,254.588684 
	C364.321808,257.027374 362.652710,259.046021 360.602356,261.063354 
	C356.905060,261.253693 353.588989,261.445404 350.132019,261.284271 
	C348.185913,259.241150 346.380707,257.550842 344.575531,255.860504 
	C347.151855,254.586899 349.728149,253.313278 352.735657,251.826508 
	C352.735657,247.390396 352.735657,242.274582 352.735657,236.716309 
	C351.079071,236.790222 349.497253,236.860809 347.455505,236.893585 
	C349.848022,233.276016 355.570343,232.803970 360.870544,236.042084 
z"/>
<path fill="#F0F0F0" opacity="1.000000" stroke="none" 
	d="
M555.228760,110.803802 
	C557.186523,113.829849 558.913086,116.579903 560.809875,119.601173 
	C551.840881,121.634247 552.181763,112.398071 546.884705,109.364746 
	C547.615051,112.212349 548.426514,114.529129 548.711121,116.908897 
	C548.822754,117.842644 547.754639,118.917488 547.223816,119.928085 
	C546.161560,119.231079 544.393616,118.718376 544.155396,117.806168 
	C542.909241,113.034454 541.831177,108.189835 541.199890,103.305260 
	C541.023376,101.939880 542.224243,99.665703 543.418579,99.077049 
	C544.438538,98.574333 546.889343,99.438812 547.774536,100.486534 
	C550.427368,103.626488 552.623291,107.152489 555.228760,110.803802 
z"/>
<path fill="#EFEFEF" opacity="1.000000" stroke="none" 
	d="
M427.786499,213.800201 
	C427.311798,216.114090 426.545135,218.192123 425.691711,220.649994 
	C424.422882,221.504654 422.892303,221.659393 422.114868,222.505829 
	C416.774170,228.320816 410.622375,229.282043 403.214844,225.965256 
	C403.966522,224.671783 405.115509,223.442352 406.949799,222.134140 
	C409.989807,222.082367 412.590454,222.775101 414.653656,222.012970 
	C421.138885,219.617401 422.319611,216.532654 420.955841,207.858765 
	C422.087524,206.618286 423.219208,205.377808 424.633301,203.991455 
	C425.775299,207.085159 426.634888,210.324753 427.786499,213.800201 
z"/>
<path fill="#EFEFEF" opacity="1.000000" stroke="none" 
	d="
M385.156738,247.806213 
	C383.007050,246.289246 381.059540,244.482239 379.413940,242.349075 
	C382.768311,241.034439 387.034943,244.300949 388.966187,239.383301 
	C390.358612,238.000900 391.751038,236.618484 393.716217,234.997162 
	C394.511017,234.436737 394.733093,234.115204 394.955200,233.793671 
	C396.059265,232.594269 397.163361,231.394852 398.544159,230.064667 
	C399.503967,230.807831 400.187042,231.681747 400.111145,231.584625 
	C398.804199,234.401443 398.200256,236.685547 396.853241,238.378403 
	C394.778961,240.985291 392.313812,243.325424 389.774780,245.498688 
	C388.592987,246.510208 386.848419,246.864151 385.156738,247.806213 
z"/>
<path fill="#53B8E5" opacity="1.000000" stroke="none" 
	d="
M364.975128,305.290802 
	C362.437714,306.013641 360.218597,306.788300 357.960052,306.928833 
	C351.046631,307.358948 348.882690,305.496124 347.366821,297.705231 
	C352.992676,299.309875 358.345978,300.748138 363.617889,302.440094 
	C364.372162,302.682159 364.732666,304.151337 364.975128,305.290802 
z"/>
<path fill="#F44E4E" opacity="1.000000" stroke="none" 
	d="
M248.892365,263.113281 
	C255.531952,259.405518 259.906860,259.834686 263.347382,264.861206 
	C258.247772,266.619629 253.359848,268.305023 247.744568,270.241241 
	C248.121399,267.583099 248.413574,265.522186 248.892365,263.113281 
z"/>
<path fill="#E2E2E2" opacity="1.000000" stroke="none" 
	d="
M324.335266,268.078003 
	C325.651764,273.701294 328.380402,278.428162 332.933899,282.489166 
	C332.220642,286.069031 330.990784,287.436188 328.384857,283.970276 
	C324.847137,279.265045 320.948303,274.712921 324.335266,268.078003 
z"/>
<path fill="#E9EDEE" opacity="1.000000" stroke="none" 
	d="
M344.275574,255.973679 
	C346.380707,257.550842 348.185913,259.241150 350.071960,261.587280 
	C352.914215,263.709473 355.675598,265.175781 358.437012,266.642090 
	C351.751617,267.890503 346.385590,265.815613 342.100098,260.086060 
	C342.528107,258.627777 343.251831,257.357330 344.275574,255.973679 
z"/>
<path fill="#53B8E4" opacity="1.000000" stroke="none" 
	d="
M358.774841,266.688354 
	C355.675598,265.175781 352.914215,263.709473 350.212860,261.940125 
	C353.588989,261.445404 356.905060,261.253693 360.822388,261.282715 
	C362.556946,262.018555 363.690308,262.533691 364.823639,263.048798 
	C362.919983,264.277374 361.016327,265.505981 358.774841,266.688354 
z"/>
<path fill="#F0F0F0" opacity="1.000000" stroke="none" 
	d="
M520.893311,114.078575 
	C524.944702,115.494553 528.680176,117.054642 532.415588,118.614731 
	C532.259460,119.071411 532.103333,119.528084 531.947205,119.984764 
	C528.681396,119.984764 525.395752,120.191505 522.159546,119.881935 
	C520.883789,119.759895 519.158936,118.727333 518.695740,117.653435 
	C518.378296,116.917320 519.885742,115.394073 520.893311,114.078575 
z"/>
<path fill="#EAEBEB" opacity="1.000000" stroke="none" 
	d="
M375.923157,240.190552 
	C373.471375,239.280716 371.019592,238.370895 368.285217,237.244125 
	C367.678497,234.577530 367.354370,232.127884 367.055481,229.250946 
	C368.548981,229.019394 370.017242,229.215149 371.747253,230.047699 
	C373.313721,233.853149 374.618439,237.021851 375.923157,240.190552 
z"/>
<path fill="#F1DEDE" opacity="1.000000" stroke="none" 
	d="
M137.895844,147.082626 
	C135.112366,150.146957 131.984665,153.140106 128.551453,156.285004 
	C130.123886,152.610397 132.001831,148.784073 133.930786,144.853821 
	C135.895752,146.024719 136.723694,146.518082 137.895844,147.082626 
z"/>
<path fill="#EAEBEB" opacity="1.000000" stroke="none" 
	d="
M365.140564,262.904999 
	C363.690308,262.533691 362.556946,262.018555 361.203613,261.284058 
	C362.652710,259.046021 364.321808,257.027374 366.333679,254.862427 
	C367.736755,255.272293 368.797089,255.828476 369.982483,256.665222 
	C368.557526,258.884247 367.007507,260.822723 365.140564,262.904999 
z"/>
<path fill="#F0F0F0" opacity="1.000000" stroke="none" 
	d="
M166.094147,377.021729 
	C167.293762,375.285980 168.794312,373.689484 170.591492,371.948425 
	C174.288620,375.019440 171.489822,377.101349 169.373779,379.493011 
	C168.386581,378.720154 167.390823,377.940552 166.094147,377.021729 
z"/>
<path fill="#FBFDFE" opacity="1.000000" stroke="none" 
	d="
M376.070435,240.448288 
	C374.618439,237.021851 373.313721,233.853149 372.013550,230.301361 
	C377.437805,233.007828 382.857483,236.097397 388.621704,239.285141 
	C387.034943,244.300949 382.768311,241.034439 379.262115,242.050278 
	C377.944794,241.620422 377.081238,241.163223 376.070435,240.448288 
z"/>
<path fill="#FFFEFE" opacity="1.000000" stroke="none" 
	d="
M420.652039,208.007095 
	C422.319611,216.532654 421.138885,219.617401 414.653656,222.012970 
	C412.590454,222.775101 409.989807,222.082367 407.236267,222.001526 
	C411.341003,217.350281 415.844604,212.752853 420.652039,208.007095 
z"/>
<path fill="#FBFDFE" opacity="1.000000" stroke="none" 
	d="
M394.693207,233.918427 
	C394.733093,234.115204 394.511017,234.436737 394.002686,234.852234 
	C393.954681,234.645218 394.192963,234.344208 394.693207,233.918427 
z"/>
</svg>