<?xml version="1.0" standalone="no"?>
<!DOCTYPE svg PUBLIC "-//W3C//DTD SVG 20010904//EN"
 "http://www.w3.org/TR/2001/REC-SVG-20010904/DTD/svg10.dtd">
<svg version="1.0" xmlns="http://www.w3.org/2000/svg"
 width="393.000000pt" height="155.000000pt" viewBox="0 0 393.000000 155.000000"
 preserveAspectRatio="xMidYMid meet">

<g transform="translate(0.000000,155.000000) scale(0.100000,-0.100000)"
fill="#000000" stroke="none">
<path d="M0 775 l0 -775 1965 0 1965 0 0 775 0 775 -1965 0 -1965 0 0 -775z
m1797 253 c25 -12 71 -45 102 -75 56 -53 56 -53 19 -38 -58 23 -92 10 -173
-66 -68 -65 -72 -67 -84 -47 -10 16 -10 23 3 37 14 15 14 19 -1 34 -16 15 -16
18 0 35 16 18 16 20 -3 37 -19 17 -22 18 -37 2 -16 -15 -15 -18 2 -37 17 -19
18 -22 2 -37 -15 -16 -15 -18 0 -35 15 -17 15 -19 -2 -38 -17 -19 -19 -19 -37
-4 -17 16 -19 16 -36 1 -17 -15 -19 -15 -35 0 -15 16 -15 18 0 35 15 17 15 19
-2 38 -17 19 -18 22 -2 37 15 16 15 18 0 35 -15 17 -15 19 2 38 60 67 194 90
282 48z m-447 -61 c0 -8 -11 -19 -25 -25 -32 -15 -36 -62 -5 -62 11 0 20 -7
20 -15 0 -8 -9 -15 -20 -15 -19 0 -20 -7 -20 -90 0 -83 -1 -90 -20 -90 -19 0
-20 7 -20 90 0 73 -3 90 -15 90 -8 0 -15 7 -15 15 0 8 7 15 15 15 10 0 15 10
15 28 0 32 8 45 35 60 27 16 55 15 55 -1z m-170 -22 c0 -19 -20 -29 -32 -17
-15 15 -2 43 17 36 8 -3 15 -12 15 -19z m2490 -125 c0 -123 -3 -150 -14 -150
-8 0 -16 5 -18 11 -3 9 -9 9 -25 0 -54 -29 -105 3 -119 75 -16 87 38 145 114
120 21 -7 22 -5 22 43 0 44 3 51 20 51 19 0 20 -7 20 -150z m-3292 93 c6 -27
16 -76 23 -111 6 -34 14 -60 17 -57 3 3 18 51 32 108 22 83 30 102 45 102 16
0 24 -19 44 -102 15 -56 29 -104 32 -108 4 -3 12 23 18 57 30 152 32 158 52
158 10 0 19 -3 19 -7 0 -5 -14 -70 -32 -145 -29 -125 -34 -138 -53 -138 -18 0
-24 9 -34 52 -24 107 -43 162 -51 147 -4 -8 -18 -56 -31 -106 -21 -83 -26 -93
-46 -93 -13 0 -23 3 -23 6 0 3 -13 64 -30 136 -35 153 -35 148 -11 148 15 0
22 -11 29 -47z m1701 -8 c12 -30 30 -80 42 -110 11 -30 24 -53 28 -50 5 2 25
52 47 110 36 99 40 105 66 105 l28 0 0 -145 c0 -140 -1 -145 -21 -145 -19 0
-20 5 -17 110 2 61 1 110 -2 110 -3 0 -23 -48 -46 -108 -25 -65 -47 -108 -56
-110 -12 -2 -27 27 -59 110 l-44 113 -3 -112 c-2 -105 -4 -113 -22 -113 -19 0
-20 7 -20 145 l0 145 29 0 c27 0 32 -6 50 -55z m-1237 -44 c12 -12 17 -38 20
-104 3 -76 1 -87 -14 -87 -9 0 -19 4 -22 9 -4 5 -18 5 -34 -1 -58 -22 -111 15
-97 69 6 26 56 53 100 53 32 0 35 34 4 50 -16 9 -26 8 -44 -4 -44 -29 -74 -16
-37 16 33 30 92 30 124 -1z m221 1 c9 -8 17 -21 17 -29 0 -20 -30 -15 -49 9
-24 29 -74 19 -69 -14 2 -17 14 -25 47 -35 56 -16 71 -29 71 -64 0 -61 -98
-82 -148 -32 -24 24 -25 28 -9 31 10 2 27 -4 37 -13 26 -23 74 -16 78 12 3 17
-4 23 -35 33 -58 18 -83 38 -83 64 0 57 92 82 143 38z m1439 1 c13 -11 17 -36
20 -104 3 -78 1 -89 -14 -89 -9 0 -19 4 -22 9 -4 5 -18 5 -34 -1 -58 -22 -111
15 -97 69 6 26 56 53 100 53 30 0 35 34 7 49 -20 11 -62 4 -62 -10 0 -5 -9 -9
-20 -9 -25 0 -26 12 -2 32 32 30 90 30 124 1z m218 8 c0 5 7 9 15 9 13 0 15
-23 15 -145 0 -138 -1 -145 -20 -145 -17 0 -20 7 -20 49 l0 49 -29 -11 c-41
-15 -78 3 -97 48 -40 96 21 184 103 150 18 -8 33 -10 33 -4z m238 -5 c5 -3 12
-15 15 -26 7 -27 -23 -27 -46 0 -20 24 -50 26 -67 5 -16 -20 1 -41 40 -50 36
-8 80 -42 80 -61 0 -27 -47 -64 -80 -64 -45 0 -89 26 -90 53 0 14 38 7 44 -8
8 -21 75 -20 83 1 8 21 -13 38 -65 53 -50 14 -71 46 -53 80 19 34 96 44 139
17z m235 -17 c20 -25 23 -115 4 -140 -50 -65 -153 -44 -173 35 -15 60 20 128
71 138 31 6 78 -10 98 -33z m229 4 c18 -20 23 -36 23 -80 0 -48 -4 -58 -28
-79 -40 -34 -90 -32 -128 5 -24 25 -29 38 -29 78 0 58 19 90 63 101 44 11 71
4 99 -25z m-2242 -78 c0 -98 -1 -105 -20 -105 -19 0 -20 7 -20 105 0 98 1 105
20 105 19 0 20 -7 20 -105z m515 -16 c4 -5 0 -18 -9 -28 -14 -16 -14 -19 0
-33 13 -13 14 -19 3 -36 -11 -18 -10 -24 6 -42 17 -19 19 -19 37 -3 17 16 20
16 35 0 16 -15 18 -15 35 0 17 15 20 15 34 1 14 -14 13 -18 -18 -42 -105 -79
-236 -72 -336 20 l-47 43 47 1 c44 0 53 5 120 65 77 68 83 71 93 54z m72 -5
c9 -23 -13 -40 -32 -24 -12 10 -13 16 -4 26 15 18 28 18 36 -2z m72 2 c9 -10
8 -16 -4 -26 -21 -17 -51 6 -34 26 6 8 15 14 19 14 4 0 13 -6 19 -14z m-70
-70 c9 -10 8 -16 -4 -26 -21 -17 -51 6 -34 26 6 8 15 14 19 14 4 0 13 -6 19
-14z m70 0 c9 -10 8 -16 -4 -26 -21 -17 -51 6 -34 26 6 8 15 14 19 14 4 0 13
-6 19 -14z m-399 -320 c1 -6 8 2 16 17 9 16 18 27 21 24 2 -3 -1 -16 -8 -29
-7 -12 -16 -36 -20 -53 -6 -28 -7 -28 -8 -5 -1 14 -8 36 -16 50 -8 14 -14 30
-14 35 0 13 29 -26 29 -39z m130 25 c16 -31 12 -59 -12 -75 -28 -20 -33 -20
-52 0 -19 18 -21 65 -4 82 18 18 56 14 68 -7z m45 -48 c4 -15 13 -23 25 -23
17 0 20 7 20 45 0 25 5 45 10 45 16 0 12 -77 -6 -94 -35 -35 -65 -6 -63 61 1
25 3 30 6 13 2 -14 6 -35 8 -47z m152 51 c3 -9 1 -25 -5 -35 -7 -11 -8 -20 -2
-24 6 -3 10 -12 9 -18 0 -7 -7 -2 -16 11 -8 12 -19 22 -24 22 -4 0 -10 -10
-12 -22 -2 -13 -5 1 -6 30 -1 49 0 52 24 52 15 0 28 -7 32 -16z m101 9 c-36
-5 -40 -42 -5 -44 l22 -2 -22 -4 c-13 -2 -24 -13 -26 -26 -2 -12 -5 2 -6 31
l-1 52 33 -1 c30 -2 30 -2 5 -6z m102 -8 c10 -12 10 -18 -1 -31 -10 -12 -10
-20 -1 -35 7 -10 9 -19 4 -19 -4 0 -13 9 -20 20 -16 26 -30 25 -35 -2 -2 -13
-5 1 -6 30 -1 48 1 52 23 52 13 0 29 -7 36 -15z m73 8 c-19 -4 -23 -11 -23
-43 0 -32 4 -39 23 -43 16 -3 13 -5 -10 -6 l-33 -1 0 50 0 50 33 -1 c23 -1 26
-3 10 -6z m85 0 c-25 -4 -28 -8 -28 -43 0 -35 3 -39 28 -43 25 -4 25 -4 -5 -6
l-33 -1 0 50 0 50 33 -1 c30 -2 30 -2 5 -6z m80 -86 c24 -4 24 -4 -5 -6 l-33
-1 2 53 2 52 3 -47 c4 -42 7 -47 31 -51z m94 43 c9 -27 12 -50 7 -50 -5 0 -9
7 -9 15 0 21 -37 19 -49 -2 -15 -26 -13 -13 5 40 9 26 19 47 23 47 4 0 14 -22
23 -50z m48 -10 l-7 -45 -2 55 c0 32 3 50 8 45 5 -6 5 -30 1 -55z m56 -38
c-11 -10 -12 3 -7 53 l6 50 3 -49 c2 -26 1 -51 -2 -54z m74 89 c-18 -5 -26
-15 -28 -35 -4 -35 15 -58 42 -51 18 5 19 5 4 -5 -22 -14 -54 2 -63 30 -9 29
20 70 48 69 21 -1 20 -1 -3 -8z m89 2 c-23 -4 -26 -9 -26 -43 0 -34 3 -39 26
-43 23 -3 22 -4 -6 -6 l-33 -1 0 50 0 50 33 -1 c28 -2 29 -3 6 -6z m-179 -67
c0 -6 -7 -2 -15 8 -8 11 -15 25 -15 30 0 6 7 2 15 -8 8 -11 15 -25 15 -30z"/>
<path d="M1551 936 c-17 -20 13 -43 34 -26 12 10 13 16 4 26 -6 8 -15 14 -19
14 -4 0 -13 -6 -19 -14z"/>
<path d="M1551 867 c-8 -11 -6 -18 8 -31 16 -15 19 -15 31 -1 10 12 10 18 0
30 -15 19 -24 19 -39 2z"/>
<path d="M3544 825 c-11 -17 -15 -36 -11 -61 7 -45 23 -64 52 -64 35 0 46 22
43 87 -3 57 -3 58 -35 61 -25 3 -35 -2 -49 -23z"/>
<path d="M739 754 c-27 -33 33 -72 67 -44 7 7 14 23 14 36 0 21 -5 24 -34 24
-18 0 -39 -7 -47 -16z"/>
<path d="M2399 754 c-27 -33 33 -72 67 -44 7 7 14 23 14 36 0 21 -5 24 -34 24
-18 0 -39 -7 -47 -16z"/>
<path d="M2643 845 c-47 -33 -35 -136 15 -143 39 -6 52 15 52 79 0 47 -4 60
-19 69 -25 13 -22 13 -48 -5z"/>
<path d="M3085 835 c-44 -44 -24 -135 30 -135 36 0 55 26 55 76 0 31 -6 50
-20 64 -26 26 -36 25 -65 -5z"/>
<path d="M3320 840 c-44 -44 -18 -140 38 -140 59 0 72 123 16 149 -32 14 -31
14 -54 -9z"/>
<path d="M1510 380 c-15 -27 -3 -60 20 -60 25 0 40 29 29 58 -10 28 -35 29
-49 2z"/>
<path d="M1720 380 c0 -15 5 -20 18 -18 9 2 17 10 17 18 0 8 -8 16 -17 18 -13
2 -18 -3 -18 -18z"/>
<path d="M1920 380 c0 -13 7 -20 20 -20 13 0 20 7 20 20 0 13 -7 20 -20 20
-13 0 -20 -7 -20 -20z"/>
<path d="M2267 370 c-3 -13 0 -20 9 -20 15 0 19 26 5 34 -5 3 -11 -3 -14 -14z"/>
</g>
</svg>
