<?xml version="1.0" encoding="utf-8"?>
<!-- Generator: Adobe Illustrator 25.0.0, SVG Export Plug-In . SVG Version: 6.00 Build 0)  -->
<svg version="1.1" id="Layer_1" xmlns="http://www.w3.org/2000/svg" xmlns:xlink="http://www.w3.org/1999/xlink" x="0px" y="0px"
	 viewBox="0 0 741.3 685.1" style="enable-background:new 0 0 741.3 685.1;" xml:space="preserve">
<style type="text/css">
	.st0{fill:#F0F0F0;}
	.st1{fill:#8FC641;}
	.st2{fill:#FDDE1A;}
	.st3{fill:#4AB4E3;}
	.st4{fill:#F34545;}
	.st5{fill:#FDDE1C;}
	.st6{fill:#F34444;}
	.st7{fill:#48B4E3;}
	.st8{fill:#4EB6E4;}
	.st9{fill:#FFFFFF;}
	.st10{fill:#53B8E5;}
	.st11{fill:#F44E4E;}
	.st12{fill:#53B8E4;}
	.st13{fill:#FBFDFE;}
</style>
<path class="st0" d="M88.6,599c-0.4-0.6-0.5-1.5-0.1-1.9c2-2.1,9.7-1.4,11.6,1.5C96.4,599,92.8,599,88.6,599z"/>
<path class="st1" d="M410.9,87.4c15.5-15.3,30.5-30.5,45.9-45.1c7.5-7.1,12.8-7,20.4,0.3c17.1,16.5,33.9,33.2,50.6,50
	c8.1,8.1,16.1,16.4,23.8,24.9c6.3,6.9,6.2,11.1-0.4,17.7c-26.6,27-53.3,53.9-80,80.8c-26.9,27-54,54-81,81c-2.8,2.8-5.5,5.5-8.5,8.1
	c-8.4,7.4-10,6.7-17.8-1.3c-6.1-6.2-13.9-10.7-20.1-16.9c-48.9-48.7-97.6-97.6-146.3-146.4c-1.4-1.4-2.7-2.8-3.9-4.3
	c-7.2-8.6-7.3-12.4,0.3-21c3.6-4,7.4-7.8,11.6-11.2c7.8-6.4,10.4-6.5,17.6,0.4c14.9,14.2,29.4,28.7,44,43.2
	c31.2,31.1,62.3,62.3,93.4,93.4c9.7,9.7,13.5,9.7,23.1,0.1c35.2-35.4,70.4-70.8,105.6-106.2c7.1-7.2,7-10.6-0.2-17.6
	c-4.6-4.4-9-9-13.5-13.4c-7.6-7.3-10.4-7.3-17.7,0c-8.2,8.1-16.2,16.3-24.3,24.4c-16.1,16-32.3,32.1-48.5,48
	c-10.7,10.5-14.5,10.7-25,0.3c-33.4-33-67.1-65.8-99.6-99.7c-12.2-12.7-11.3-12.3-1.4-26.6c0.7-1,1.5-1.9,2.4-2.8
	c12-12.8,18.7-12.9,31.2-0.5c22.1,21.9,44.1,43.8,66.1,65.7c2.3,2.2,4.6,4.4,6.9,6.6c4.4,4.2,8.6,4.7,13.3-0.1
	C389.2,108.6,399.9,98.2,410.9,87.4z"/>
<path class="st2" d="M213.8,598c-7.3-7.3-14.4-14-21-21.2c-5.6-6-5.6-11-0.7-17.7c1.7-2.4,3.8-4.5,5.9-6.5
	c32.9-32.9,66.1-65.4,98.4-98.8c6.7-6.9,14.2-6,21.7-7c6.4-0.9,13.7,1.1,19.3-1.3c10.3-4.3,18.7,0.1,30.4,3
	c-3.2,2.2-5.3,3.1-6.8,4.7C326,488,291,522.8,256,557.8c-8.9,8.9-8.9,9.7-0.2,18.9c5.2,5.5,10.7,10.7,16.2,15.9
	c4.1,3.8,8.1,3.8,12.2-0.3c7.6-7.6,15.3-15.1,23-22.7c16.6-16.6,33.2-33.2,49.8-49.8c2.4-2.4,5.1-4.5,7.6-6.9
	c5-4.8,10.1-4.2,15.1-0.1c2.8,2.3,5.5,4.8,8.1,7.4c31.6,31.7,63.2,63.4,94.8,95.1c13.8,13.9,13.8,15,0.9,29.9
	c-1.8,2-3.5,4.1-5.5,5.9c-7.9,7-13.6,7.5-21.2,0.2c-23.2-22.4-46.1-45.3-68.9-68c-15.3-15.3-16.9-15.3-32.2,0.2
	c-19.8,20-39.5,40-59.5,59.9c-4.5,4.5-9.5,8.5-14.7,12c-1.8,1.2-5.7,1.3-7.5,0.1c-4.9-3.1-9.6-6.8-13.7-10.9
	C244.8,629.3,229.6,613.8,213.8,598z"/>
<path class="st3" d="M648.8,403.5c0.4,9.6,0.5,18.6,0.6,27.7c0.1,11.9,4.6,16.4,16.4,16.5c4.1,0,8.2,0,13.8,0
	c-2.2,3.1-3.3,5.1-4.9,6.7c-23.8,23.6-47.4,47.3-71.5,70.7c-8.3,8.1-11.8,8.2-19.9,0.1c-27.4-27.5-54.4-55.4-82-83.5
	c12.7-6.9,21.4-18.2,26.7-34.9c10.7,12.4,20.2,23.4,29.6,34.4c1.1,1.3,2,2.8,3.3,3.8c7.6,6.4,15.3,12.6,22.8,19.1
	c7.5,6.6,10.8,6.8,18-0.3c5.4-5.3,10.6-10.9,15.9-16.2c4-4,4.7-8.7,0.1-11.9c-11.3-7.8-11.9-18.8-11.3-31
	c0.6-14.1,0.1-28.3,0.1-41.9C620.4,376.2,634.5,389.6,648.8,403.5z"/>
<path class="st4" d="M144.3,165.8c6.4-4.2,11.9-2.8,17.1,2.3c14,14,28.1,27.9,42.1,41.9c25.3,25.3,50.5,50.5,75.7,75.8
	c1.7,1.7,3.3,3.5,5.5,5.8c-13.5,8.3-23.3,19-26,36.2c-10.1-10-19.4-19.1-28.4-28.5c-1.2-1.3-1-4.6-0.5-6.6c2.3-8.5,5-16.8,7.4-25.3
	c3.4-11.9-1.5-18.5-13.9-18.7c-7.6-0.1-15.2-0.7-22.7,0.2c-4.8,0.6-9.3,3.4-13.9,5.2c-0.5,1.4-1,2.8-1.5,4.3
	c-9.1-10.2-18.3-20.3-27.4-30.5c-4.5-5-8.8-4.1-13.1,0.3c-3.6,3.7-7.5,7-11,10.8c-5.4,5.8-10.5,11.1-19.6,10.2
	c-5.6-0.6-8.6,3.8-10.1,8.9c-2.9,10.3-5.9,20.7-9.2,32.3c-7.9-8.8-18-14.4-20.1-27c-1.1-6.5-2.9-13.2-13.6-14.9
	c23.6-23.5,45.9-45.8,68.8-68.8C135.1,174.6,139.7,170.2,144.3,165.8z"/>
<path class="st5" d="M457.9,464c29.5,29.4,58.6,58.4,87.6,87.5c14.4,14.4,14.4,17,0.1,31.4c-14.6,14.7-17.1,14.7-31.8-0.1
	c-45.2-45.5-90.3-91-134.3-135.2c1.3-6.3,3.6-12.4,3.6-18.5c0-9.9,3-20.4-5.7-29.2c-2.3-2.3-0.3-8.8-0.3-14.8
	c2.8,2.2,4.9,3.6,6.6,5.4c10.3,10.6,21.7,20,28.6,33.9c3.5,7,10.4,13.7,17.5,17C441.2,446.7,449,455.5,457.9,464z"/>
<path class="st6" d="M184.8,503.2c-8.3,7.9-16.6,15.8-24.9,23.8c-5.4,5.2-10.8,5.2-16.2,0.3c-4.7-4.3-9.6-8.4-13.8-13.1
	c-6.2-6.9-6.1-11-0.5-18.2c2.4-3.1,4.9-6.1,7.8-8.8c15-14.3,30.2-28.4,45.1-42.8c3.6-3.5,6.1-8.2,9.7-11.8
	c23.3-23.4,46.8-46.6,70.2-70c4.6-4.6,8.9-9.7,13.8-15.1c2.8,1.1,6.2,2.3,11.1,4.2c-15.7,5.2-26.7,14.1-29,30
	c-2,14.3-3.3,28.8,5.4,42.9c-23.6,23.4-47.2,46.8-71.4,70.9C189.2,498.5,187,500.8,184.8,503.2z"/>
<path class="st7" d="M480.4,285.7c-4-0.6-8.1-1.1-12.8-1.8c1.7-1.8,3.2-3.6,4.8-5.3c34.9-35,69.7-70,104.7-104.8
	c15.6-15.6,18.5-13.8,33.1,1.3c12.7,13.2,12.1,16.4-0.9,29.6c-14.4,14.6-29,29-44.1,44.1c-2.3,2.5-4,4.3-6.1,6.3
	c-7.1,7-13.7,13.7-20.7,20.7c-2.1,2-3.8,3.8-5.5,5.6c-1.8,1.7-3.6,3.4-6.1,5.7c-2.2,2.4-3.9,4.1-5.9,6.1c-0.7,0.6-1.1,1.1-1.9,1.7
	c-2.5,2.2-4.5,4.3-7.1,6.2c-8.5-4.7-16.4-9.2-24.8-14.1C484.7,286.3,482.5,286,480.4,285.7z"/>
<path class="st7" d="M609.8,330.5c-1.3-0.2-3.2-0.7-3.2-1.3c-0.2-8.1,0.2-16.2-0.2-24.2c-0.3-5.2-1.7-10.3-2.7-16.1
	c1.2-4.8,2.5-10.6,4.1-16.4c0.6-2.2,1.5-4.7,3-6.2c11.4-11.5,22.8-22.9,34.4-34.1c7.4-7.1,13.5-7.1,21,0.1
	c5.4,5.2,10.2,10.9,15.8,16.9c-17.2,8.1-26.6,21.1-31.4,37.9c-0.7,2.4-2.5,4.7-4.3,6.6C634.4,305.8,622.3,318,609.8,330.5z"/>
<path class="st4" d="M106.5,455.6c-17.1,15.9-17.5,19-38.9-4.1c-7.4-8-6.5-13.8,2.3-21.3c0.5,1.4,1.1,2.6,1.5,3.8
	c4,12.7,5.7,14,19.3,13.8c9.5-0.1,12.3-2.1,15.5-11.3c1.5-4.4,2.7-8.9,4.5-13.1c4.8-11.1,7.4-22.2,1.7-31.8
	c6.8-9.1,12.8-17.1,19.9-26.6c4.8,17,9.1,31.9,12.9,46.9c0.5,2.1-1.2,5.5-3,7.3C130.6,431.4,118.7,443.3,106.5,455.6z"/>
<path class="st8" d="M535.6,350.7c0.1-3.1-0.6-6.4,0.8-8.1c5.6-7.4,11.9-14.3,17.9-21.3c0.5,0.3,1,0.7,1.5,1c0,16.4,0,32.8,0,49.1
	c-0.5,0.4-1,0.8-1.5,1.3C548.2,365.6,542,358.4,535.6,350.7z"/>
<g>
	<path class="st9" d="M328.3,351.6c7.8-2.8,12.9-6.5,11.3-15.7c-1.4-8.2-5.6-12.7-16.3-15.2c0-7.5,0-15,0-22.4
		c22.2-1.5,40.7,16.2,41,39.4c0.3,20.8-0.2,41.6,0.3,62.4c0.1,3.7,3.3,7.3,4.9,11c0.7,1.4,1.6,2.9,1.7,4.4
		c0.2,6.3,0.1,12.7,0.1,21.2c-8.1-3-15.1-5.6-21.7-8c-8.2,2.5-16.7,5.1-26,8c0-9.1,0-16.8,0-24.5c14-4,16-6.8,16-21.6
		c0-6.3,0-12.7,0-18.9c-13,3.6-25.6,7-38.2,10.7c-9.2,2.7-10.9,5.4-10.3,14.8c0.5,8.3,4.2,12.3,12.5,13.6c1.9,0.3,3.9,0.5,6.2,0.8
		c0,7.8,0,15.5,0,23.5c-16.4-0.7-30.5-5.5-37.5-21.1c-5.4-12-5.5-25.3,0.5-36.9c3-5.7,10.3-10.3,16.7-12.9
		C301.9,359.3,315,355.9,328.3,351.6z"/>
	<path class="st9" d="M97.3,341.5c-0.2-4.6-1.1-8.8-0.1-12.6c5.9-22.1,12.3-44.1,18.5-66.2c0.1-0.5,0.5-0.9,0.8-1.5
		c8.6,0,17.4,0,26.7,0c6.1,21.9,12.3,43.9,18.4,65.9c6.6,23.7,13.2,47.4,20,71.1c1.5,5.4,1.9,10.2-0.4,15.5
		c-2.1,4.6-3.7,9.6-4.7,14.6c-1.3,6.3-4.4,8.8-11.5,6.6c-11.4-40.7-23-81.9-34.6-123.1c-0.5-0.1-1-0.2-1.5-0.3
		c-6.3,21.6-12.6,43.3-18.9,64.9c-0.7,0-1.4,0.1-2.1,0.1C104.3,365,100.9,353.6,97.3,341.5z"/>
	<path class="st9" d="M694.7,334.2c-2.6,0-4.5,0-7.1,0c0,33.9,0,67.3,0,101c-8.7,0-16.6,0-25.3,0c0-33.5,0-66.9,0-101
		c-6,0-11.3,0-16.9,0c0-8.4,0-16.1,0-24.4c5.2,0,10.5,0,16.8,0c-1-18.3,2.1-34.6,18.3-45.4c8-5.3,17.5-7.2,31.4-5.5
		c-1.8,7.9-3.5,15.7-5.2,23.4c-19.1,3.7-19.7,4.5-18.8,26.8c5.4,0,10.9,0,17.1,0c0,4.6,0,8.4,0,12.2c0,3.9,0,7.8,0,12.8
		C701.5,334.2,698.4,334.2,694.7,334.2z"/>
	<path class="st9" d="M443.3,331.4c-3.3,7-0.4,12.3,5.9,14.9c10.8,4.4,21.8,9,33.2,11c24.4,4.4,36.1,21.4,33.9,40.9
		c-2.6,23.3-18.7,37.3-44.6,37.9c0-7.7,0-15.4,0-22.8c4.2-1.7,9-3,13-5.5c10.2-6.3,9.7-18.9-1.3-23.5c-10.1-4.2-20.9-6.5-31.2-10.1
		c-7.1-2.5-13.8-5.9-21.4-9.5c-7.2-6.1-11.2-13.1-12.6-21.5c-0.1-25.6,8.5-37.8,32.9-45.4c3.5-0.3,5.8-0.4,8.3-0.5
		c0,8.2,0,15.7,0,22.2c-4.4,2.2-8.2,4.1-12.4,6.1C445.4,327.7,444.3,329.5,443.3,331.4z"/>
	<path class="st9" d="M55.3,333.7c-7.1-24.4-14-48.3-21-72.5c9.3,0,17.8,0,27,0c6.4,21.5,12.8,43.2,19.1,64.8
		c7,23.9,14.2,47.7,20.7,71.7c1.3,4.8,0.8,10.5-0.3,15.4c-1.7,7.5-4.8,14.7-7.2,21.8c-6.6,2-9.5-0.2-11.2-6.5
		C73.7,397,64.5,365.7,55.3,333.7z"/>
	<path class="st9" d="M593.8,302.3c0,44.7,0,88.6,0,132.9c-8.5,0-16.5,0-25,0c0-44.9,0-90,0-135.9c7.7,0,15.6,0,23.6,0.1
		C592.9,299.4,593.4,300.8,593.8,302.3z"/>
	<path class="st9" d="M199.9,349.4c-2.8,9.3-5.4,18.1-8.1,26.9c-0.6,0.1-1.2,0.1-1.8,0.2c-0.8-2.1-1.4-4.2-2.3-6.2
		c-10.5-23.4-10.6-46.5-0.3-70.3c5.3-12.2,7.8-25.5,11.6-38.6c9,0,17.7,0,27.2,0C217.4,290.6,208.7,319.7,199.9,349.4z"/>
	<path class="st9" d="M430.4,396.4c3.5-0.6,6.4-1.1,9.9-1.7c1.4,11.1,9.5,15.5,19.4,17.8c0,7.8,0,15.4,0,22.9
		c-21.5,3.5-41.9-13.7-42.5-36.3C421.4,398.3,425.6,397.4,430.4,396.4z"/>
	<path class="st9" d="M471.5,296.8c3,0.4,6,0.7,10.1,1.3c4.7,1.6,8.3,2.9,12.1,4.7c1.5,1,2.8,1.7,4.2,2.8c3.1,3.1,5.9,5.7,8.8,8.4
		c2.9,6.7,5.8,13.3,9,20.8c-9.5,1.5-16.8,2.7-23.9,3.8c-2.1-3.9-4-7.6-6.7-11.9c-2.2-1.4-3.8-2.2-5.8-3.4c-3.1-1.2-5.8-2.1-9.3-3.1
		C470.5,312.5,471,304.7,471.5,296.8z"/>
	<path class="st9" d="M310.3,306.8c0,5,0,9.4,0,14.3c-11.6,1-16.3,8.5-17,19.5c-5.7-2.1-10.8-4.7-16.2-5.9c-6.5-1.5-6.6-5.6-5-10.3
		c4.7-14,15.2-21.6,28.9-25.3c2.8-0.7,5.7-0.9,9.2-1.5C310.3,300.9,310.3,303.5,310.3,306.8z"/>
	<path class="st9" d="M570,264c4.3-1.4,8.6-4.1,12.8-3.9c6.5,0.4,11.3,4.7,12,11.7c0.7,6.9-2.3,11.7-8.8,14.4
		c-6.6,2.7-12,0.7-16.3-4.4c-1.5-1.8-2-4.3-3-7.6C567.7,270.1,568.8,267.1,570,264z"/>
</g>
<path class="st10" d="M477.3,398c-3.7,1.1-7,2.2-10.3,2.4c-10.2,0.6-13.3-2.1-15.6-13.5c8.3,2.4,16.1,4.5,23.9,7
	C476.4,394.2,476.9,396.4,477.3,398z"/>
<path class="st11" d="M306.8,336.1c9.8-5.4,16.2-4.8,21.2,2.6c-7.5,2.6-14.7,5.1-22.9,7.9C305.7,342.7,306.1,339.6,306.8,336.1z"/>
<path class="st12" d="M468.2,341.4c-4.6-2.2-8.6-4.4-12.6-7c5-0.7,9.8-1,15.6-1c2.5,1.1,4.2,1.8,5.9,2.6
	C474.3,337.8,471.5,339.6,468.2,341.4z"/>
<path class="st13" d="M520.9,293.2c0.1,0.3-0.3,0.8-1,1.4C519.9,294.3,520.2,293.9,520.9,293.2z"/>
</svg>
